<svg width="104" height="158" viewBox="0 0 104 158" fill="none" xmlns="http://www.w3.org/2000/svg">
<mask id="mask0_1_966" style="mask-type:alpha" maskUnits="userSpaceOnUse" x="0" y="0" width="104" height="158">
<rect width="104" height="158" fill="#D9D9D9"/>
</mask>
<g mask="url(#mask0_1_966)">
<path d="M8.00529 91.2251L9.32359 91.6036C10.0771 110.127 17.0483 119.389 28.5393 127.139C40.0314 134.889 52.0884 133.755 56.4218 133.188C60.7553 132.622 65.2762 131.676 72.8122 127.139C80.3483 122.603 83.7396 116.932 83.7396 116.932L82.2326 115.987C82.2326 115.987 73.1896 129.595 57.7413 131.486C42.2931 133.376 37.0175 129.974 29.4826 125.626C21.9466 121.278 17.237 114.475 14.0344 107.48C10.8318 100.487 11.3966 91.7917 11.3966 91.7917L13.8457 91.7917C13.8457 91.7917 13.8457 84.6094 16.4835 77.6151C19.1213 70.6221 24.3957 65.8957 24.3957 65.8957L22.7001 63.8171C27.221 59.092 40.7861 50.3965 56.423 52.8537C72.06 55.3109 78.335 64.0052 78.335 64.0052C78.335 64.0052 71.8713 70.0542 70.5518 71.5661C69.2335 73.0781 70.5542 73.8365 71.3089 73.0781C72.0635 72.3197 81.0074 63.6278 81.0074 63.6278C78.2753 60.792 68.4788 51.9084 56.4218 50.9631C44.3649 50.0179 39.8428 52.0977 34.191 54.1763C28.5393 56.255 20.7095 62.8706 20.7095 62.8706L20.7095 61.7361L23.4524 59.2789L20.7095 53.4192L33.4375 45.6689L36.7345 51.7179L38.3358 50.9619L29.8229 37.1639L42.8579 29.0363L54.35 49.0714L56.4218 49.0714L36.7345 17.5062L50.5516 9L80.1596 59.467L81.4779 58.1443C90.8995 65.5196 95.4204 81.0188 95.4204 81.0188L92.5939 81.9641C94.2896 85.9332 93.3474 99.3539 93.3474 99.3539L94.2896 99.5432C94.1009 101.622 93.9122 105.403 92.0291 109.939C90.1448 114.475 86.9422 119.012 86.9422 119.012L85.2465 117.689L80.9131 123.549L83.7396 129.219L70.9291 136.969L67.5378 131.677L66.5957 132.623L71.1166 139.994L57.364 147.933L50.5814 134.701L48.5096 135.08L52.0896 141.506L38.9018 149.257L31.7431 136.592C29.1053 135.647 23.8309 132.812 18.9326 128.654C14.0344 124.495 9.51345 117.879 9.51345 117.879L14.0344 114.856C13.0922 113.344 11.2079 109.752 9.51345 103.892C7.81781 98.0324 8.00649 91.2275 8.00649 91.2275L8.00529 91.2251ZM52.4669 58.5253C52.4669 58.5253 42.1056 57.58 34.1922 62.4944C26.28 67.4089 23.2649 72.7019 23.2649 72.7019L21.3806 72.7019C21.3806 72.7019 17.4245 78.183 16.4823 84.232L17.9893 84.232C17.9893 84.232 16.105 92.7382 17.9893 100.487C19.8736 108.237 27.0323 116.553 27.0323 116.553L31.7419 111.639C31.7419 111.639 25.9015 107.291 24.3945 97.6514C22.8875 88.0119 23.4523 80.4509 32.684 71.5673C41.9157 62.6837 52.4657 64.7624 52.4657 64.7624L52.4657 58.5253L52.4669 58.5253ZM50.9253 70.6916C39.0833 70.6916 29.4826 80.3239 29.4826 92.2051C29.4826 104.086 39.0833 113.719 50.9253 113.719C62.7674 113.719 72.368 104.086 72.368 92.2051C72.368 80.3239 62.7674 70.6916 50.9253 70.6916ZM86.566 116.742C91.7282 108.955 92.7826 101.621 92.7826 101.621L83.1748 99.542C84.8704 91.2251 83.1748 82.9081 83.1748 82.9081L88.8265 81.9629C91.2756 88.2 89.9573 98.7848 89.9573 98.7848L91.2756 98.7848C91.2756 98.7848 91.9109 96.3983 91.9109 90.1612C91.9109 83.9241 90.0039 78.4658 90.0039 78.4658L82.5156 80.8763C81.7645 78.3448 80.7256 76.2925 80.7256 76.2925L74.6966 79.1283C79.2951 85.9979 78.2765 96.7074 75.45 102.944C72.6236 109.182 69.987 111.828 64.1466 115.609C58.3061 119.389 51.7099 119.768 51.7099 119.768L51.7099 122.225C57.924 122.414 64.9 119.389 64.9 119.389L65.6535 122.225C75.0727 117.877 78.464 110.695 78.464 110.695L86.5649 116.744L86.566 116.742Z" fill="black"/>
</g>
</svg>
