<svg width="24" height="24" viewBox="0 0 24 24" fill="none" xmlns="http://www.w3.org/2000/svg">
<g clip-path="url(#clip0_16_17)">
<path fill-rule="evenodd" clip-rule="evenodd" d="M12.0099 0C5.36875 0 0 5.5 0 12.3042C0 17.7432 3.43994 22.3472 8.21205 23.9767C8.80869 24.0992 9.02724 23.712 9.02724 23.3862C9.02724 23.101 9.00757 22.1232 9.00757 21.1045C5.6667 21.838 4.97099 19.6378 4.97099 19.6378C4.43409 18.2118 3.63858 17.8452 3.63858 17.8452C2.54511 17.0915 3.71823 17.0915 3.71823 17.0915C4.93117 17.173 5.56763 18.3545 5.56763 18.3545C6.64118 20.2285 8.37111 19.699 9.06706 19.373C9.16638 18.5785 9.48473 18.0285 9.82275 17.723C7.15817 17.4377 4.35469 16.3785 4.35469 11.6523C4.35469 10.3078 4.8316 9.20775 5.58729 8.35225C5.46807 8.04675 5.0504 6.7835 5.70677 5.09275C5.70677 5.09275 6.72083 4.76675 9.00732 6.35575C9.98625 6.08642 10.9958 5.9494 12.0099 5.94825C13.024 5.94825 14.0577 6.091 15.0123 6.35575C17.299 4.76675 18.3131 5.09275 18.3131 5.09275C18.9695 6.7835 18.5515 8.04675 18.4323 8.35225C19.2079 9.20775 19.6652 10.3078 19.6652 11.6523C19.6652 16.3785 16.8617 17.4172 14.1772 17.723C14.6148 18.11 14.9924 18.8432 14.9924 20.0045C14.9924 21.6545 14.9727 22.9787 14.9727 23.386C14.9727 23.712 15.1915 24.0992 15.7879 23.977C20.56 22.347 23.9999 17.7432 23.9999 12.3042C24.0196 5.5 18.6312 0 12.0099 0Z" fill="#24292F"/>
</g>
<defs>
<clipPath id="clip0_16_17">
<rect width="24" height="24" fill="white"/>
</clipPath>
</defs>
</svg>
